<?xml version="1.0" standalone="no"?>
<!DOCTYPE svg PUBLIC "-//W3C//DTD SVG 20010904//EN"
 "http://www.w3.org/TR/2001/REC-SVG-20010904/DTD/svg10.dtd">
<svg version="1.0" xmlns="http://www.w3.org/2000/svg"
 width="406.000000pt" height="406.000000pt" viewBox="0 0 406.000000 406.000000"
 preserveAspectRatio="xMidYMid meet">
<metadata>
Created by potrace 1.11, written by Peter Selinger 2001-2013
</metadata>
<g transform="translate(0.000000,406.000000) scale(0.100000,-0.100000)"
fill="#000000" stroke="none">
<path d="M240 4051 c-84 -26 -159 -90 -201 -171 l-24 -45 0 -1805 0 -1805 24
-45 c32 -61 86 -116 146 -148 l50 -27 1805 0 1805 0 50 27 c60 31 115 87 144
145 l21 42 0 1811 0 1811 -24 47 c-29 57 -85 111 -146 143 l-45 24 -1790 2
c-984 1 -1801 -2 -1815 -6z m2131 -466 c35 -18 65 -74 74 -138 7 -44 6 -47
-20 -57 -48 -18 -55 -14 -55 36 0 97 -105 142 -145 63 -19 -37 -19 -92 1 -130
18 -36 16 -40 -27 -42 -29 -2 -36 4 -76 63 -41 61 -106 181 -101 185 2 1 18 5
35 8 30 6 34 4 53 -33 21 -42 50 -54 50 -21 0 28 38 70 73 80 39 12 99 6 138
-14z m-407 -26 c48 -22 54 -104 9 -127 -10 -5 -60 -15 -112 -22 -492 -65 -917
-395 -1101 -854 -150 -373 -122 -807 76 -1173 24 -46 44 -89 44 -97 0 -7 -9
-25 -21 -40 -16 -20 -29 -26 -58 -26 -48 0 -57 11 -120 135 -218 434 -222 945
-11 1367 76 152 162 271 290 399 230 230 502 373 819 429 128 22 153 23 185 9z
m843 -46 c86 -40 114 -164 57 -246 -38 -54 -83 -79 -142 -80 -65 -1 -117 27
-147 78 -88 150 74 323 232 248z m313 -248 c67 -35 104 -127 80 -199 -26 -79
-92 -128 -171 -128 -82 0 -150 57 -165 139 -13 69 36 161 101 189 41 18 119
17 155 -1z m-800 -24 c47 -11 123 -33 170 -51 287 -106 512 -370 577 -675 19
-90 19 -261 0 -350 -85 -399 -423 -700 -812 -722 l-100 -6 0 -116 c-1 -207
-55 -342 -195 -481 -94 -94 -163 -139 -267 -175 -191 -66 -361 -57 -539 30
-147 72 -294 223 -294 302 0 75 89 101 139 41 82 -99 163 -170 233 -203 288
-136 633 12 739 316 34 98 32 239 -5 339 -40 106 -41 121 -16 153 32 40 89 38
124 -4 14 -17 26 -35 26 -40 0 -5 42 -9 93 -9 220 0 435 104 573 278 58 74
129 218 150 307 21 93 21 241 -1 330 -25 102 -94 239 -162 320 -53 63 -172
165 -192 165 -4 0 -2 -23 5 -52 17 -64 17 -101 3 -170 -26 -125 -132 -254
-246 -299 -47 -19 -78 -23 -158 -24 -92 0 -105 3 -166 31 -162 77 -246 215
-237 393 9 178 108 310 277 368 82 28 167 29 281 4z m999 -390 c62 -67 170
-331 205 -501 95 -466 -31 -941 -346 -1310 -118 -138 -276 -261 -447 -349
-117 -60 -317 -129 -401 -138 -50 -5 -60 -3 -79 16 -26 26 -28 81 -3 104 9 8
57 25 107 38 402 98 723 355 904 721 104 212 145 386 144 618 -1 229 -47 416
-155 630 -32 63 -58 122 -58 133 0 27 45 67 76 67 16 0 36 -11 53 -29z m-1220
-2137 c22 -25 62 -77 88 -115 39 -58 45 -72 33 -79 -31 -20 -60 -11 -81 25
-23 39 -37 44 -45 18 -18 -57 -30 -75 -53 -87 -105 -53 -208 -8 -237 105 -15
58 -13 66 24 80 30 12 42 -1 42 -44 0 -37 49 -87 85 -87 14 0 37 11 50 25 32
31 35 105 5 150 -11 17 -20 33 -20 37 0 6 23 13 57 17 6 0 29 -20 52 -45z"/>
<path d="M2087 3096 c-114 -42 -177 -134 -177 -255 0 -67 25 -125 72 -173 56
-55 102 -73 188 -73 64 0 82 4 122 27 81 48 138 142 138 228 0 88 -65 191
-143 229 -57 28 -151 36 -200 17z"/>
</g>
</svg>
